<svg version="1.1" id="Layer_1" xmlns="http://www.w3.org/2000/svg" xmlns:xlink="http://www.w3.org/1999/xlink" x="0px" y="0px"
	 width="100%" viewBox="0 0 500 500" enable-background="new 0 0 500 500" xml:space="preserve">
<path fill="#FFFFFF" opacity="1.000000" stroke="none" 
	d="
M291.000000,501.000000 
	C194.000031,501.000000 97.500046,501.000000 1.000052,501.000000 
	C1.000035,334.333405 1.000035,167.666794 1.000017,1.000141 
	C167.666565,1.000094 334.333130,1.000094 500.999756,1.000047 
	C500.999847,167.666519 500.999847,334.333038 500.999939,500.999786 
	C431.166656,501.000000 361.333344,501.000000 291.000000,501.000000 
M119.040054,326.097626 
	C106.709435,326.114105 94.378029,326.220673 82.048515,326.111633 
	C75.176407,326.050903 69.857468,328.700378 65.737015,334.143524 
	C52.273621,351.928680 38.754120,369.671326 25.261362,387.434265 
	C22.021162,391.699890 20.547373,396.425354 23.103453,401.404541 
	C25.643394,406.352264 30.236267,407.887634 35.648888,407.886200 
	C178.960281,407.848694 322.271667,407.847504 465.583069,407.889313 
	C471.243164,407.890961 475.733215,406.046875 478.372925,400.917572 
	C481.069641,395.677338 479.493164,391.074493 476.068207,386.614258 
	C462.786255,369.317566 449.553528,351.981567 436.477570,334.529053 
	C432.102448,328.689575 426.564240,326.038300 419.357758,326.112244 
	C407.065918,326.238342 394.771820,326.147003 382.324158,326.147003 
	C382.324158,320.603729 382.324158,315.397522 382.324158,310.014832 
	C392.947052,310.014832 403.263214,310.093201 413.577667,309.993774 
	C424.896332,309.884644 431.224548,303.651093 431.235992,292.313202 
	C431.296783,231.989166 431.302826,171.664993 431.230530,111.340988 
	C431.216675,99.787468 425.065033,93.822807 413.603668,93.821213 
	C305.286926,93.806129 196.970169,93.804283 88.653427,93.824539 
	C76.828888,93.826752 70.627472,99.807182 70.615128,111.513847 
	C70.551697,171.671234 70.548691,231.828766 70.615974,291.986145 
	C70.629425,304.008423 76.828041,309.929688 88.950775,310.010254 
	C99.279800,310.078888 109.609116,310.104156 119.937035,311.063446 
	C119.947395,316.038971 119.957756,321.014465 119.040054,326.097626 
z"/>
<path fill="#080808" opacity="1.000000" stroke="none" 
	d="
M119.938293,310.148621 
	C109.609116,310.104156 99.279800,310.078888 88.950775,310.010254 
	C76.828041,309.929688 70.629425,304.008423 70.615974,291.986145 
	C70.548691,231.828766 70.551697,171.671234 70.615128,111.513847 
	C70.627472,99.807182 76.828888,93.826752 88.653427,93.824539 
	C196.970169,93.804283 305.286926,93.806129 413.603668,93.821213 
	C425.065033,93.822807 431.216675,99.787468 431.230530,111.340988 
	C431.302826,171.664993 431.296783,231.989166 431.235992,292.313202 
	C431.224548,303.651093 424.896332,309.884644 413.577667,309.993774 
	C403.263214,310.093201 392.947052,310.014832 382.324158,310.014832 
	C382.324158,315.397522 382.324158,320.603729 382.324158,326.147003 
	C394.771820,326.147003 407.065918,326.238342 419.357758,326.112244 
	C426.564240,326.038300 432.102448,328.689575 436.477570,334.529053 
	C449.553528,351.981567 462.786255,369.317566 476.068207,386.614258 
	C479.493164,391.074493 481.069641,395.677338 478.372925,400.917572 
	C475.733215,406.046875 471.243164,407.890961 465.583069,407.889313 
	C322.271667,407.847504 178.960281,407.848694 35.648888,407.886200 
	C30.236267,407.887634 25.643394,406.352264 23.103453,401.404541 
	C20.547373,396.425354 22.021162,391.699890 25.261362,387.434265 
	C38.754120,369.671326 52.273621,351.928680 65.737015,334.143524 
	C69.857468,328.700378 75.176407,326.050903 82.048515,326.111633 
	C94.378029,326.220673 106.709435,326.114105 119.939240,326.037659 
	C122.865829,325.992401 124.893234,326.007080 127.391464,326.077881 
	C210.076996,326.133972 292.291687,326.133972 374.642456,326.133972 
	C374.642456,320.573853 374.642456,315.370758 374.642456,310.033325 
	C291.915009,310.033325 209.505646,310.033325 126.799820,309.809082 
	C125.032059,308.748138 123.627220,307.652191 122.045364,307.246521 
	C121.619110,307.137207 120.655334,309.123962 119.938293,310.148621 
M288.258118,333.131439 
	C287.849426,333.165436 287.440765,333.199432 286.106445,333.052368 
	C218.125122,333.041992 150.143784,333.025482 82.162476,333.059509 
	C80.583542,333.060303 79.004898,333.630493 76.763756,333.953705 
	C75.073898,335.216095 72.991745,336.176941 71.754265,337.786987 
	C57.836426,355.895294 44.003010,374.069214 30.273647,392.320862 
	C28.173378,395.112915 27.853853,398.154144 32.422146,400.664978 
	C34.241535,400.769043 36.060917,400.964050 37.880318,400.964233 
	C179.758591,400.978333 321.636871,400.977966 463.515137,400.967834 
	C465.340363,400.967682 467.165588,400.827057 469.701691,400.684235 
	C473.878296,397.784485 474.432709,395.313416 471.373047,391.271027 
	C457.940125,373.523651 444.487549,355.790070 430.855591,338.195984 
	C429.368896,336.277130 426.680176,335.289551 423.837006,333.281097 
	C421.852020,333.195099 419.867065,333.035034 417.882050,333.034088 
	C384.833984,333.018616 351.785950,333.006378 318.737885,333.033173 
	C308.779968,333.041229 298.822113,333.170105 288.258118,333.131439 
M165.500000,302.986694 
	C247.827438,302.986694 330.154877,302.987030 412.482300,302.986237 
	C421.437378,302.986145 424.415833,300.114624 424.420837,291.075958 
	C424.453766,231.580139 424.459229,172.084274 424.422272,112.588463 
	C424.416595,103.464798 421.548981,100.652740 412.448944,100.651184 
	C304.956451,100.632835 197.463959,100.634010 89.971474,100.648453 
	C80.258438,100.649757 77.322220,103.711769 77.319283,113.616249 
	C77.313896,131.781647 77.319939,149.947052 77.320114,168.112442 
	C77.320518,208.942917 77.309387,249.773407 77.328644,290.603882 
	C77.332924,299.676514 80.633232,302.985046 89.505241,302.985901 
	C114.503494,302.988251 139.501740,302.986694 165.500000,302.986694 
z"/>
<path fill="#000000" opacity="1.000000" stroke="none" 
	d="
M119.937668,310.606018 
	C120.655334,309.123962 121.619110,307.137207 122.045364,307.246521 
	C123.627220,307.652191 125.032059,308.748138 126.739037,310.270386 
	C126.956688,315.977875 126.938660,320.999847 126.920639,326.021790 
	C124.893234,326.007080 122.865829,325.992401 120.403267,325.983856 
	C119.957756,321.014465 119.947395,316.038971 119.937668,310.606018 
z"/>
<path fill="#FDFDFD" opacity="1.000000" stroke="none" 
	d="
M165.000000,302.986694 
	C139.501740,302.986694 114.503494,302.988251 89.505241,302.985901 
	C80.633232,302.985046 77.332924,299.676514 77.328644,290.603882 
	C77.309387,249.773407 77.320518,208.942917 77.320114,168.112442 
	C77.319939,149.947052 77.313896,131.781647 77.319283,113.616249 
	C77.322220,103.711769 80.258438,100.649757 89.971474,100.648453 
	C197.463959,100.634010 304.956451,100.632835 412.448944,100.651184 
	C421.548981,100.652740 424.416595,103.464798 424.422272,112.588463 
	C424.459229,172.084274 424.453766,231.580139 424.420837,291.075958 
	C424.415833,300.114624 421.437378,302.986145 412.482300,302.986237 
	C330.154877,302.987030 247.827438,302.986694 165.000000,302.986694 
M413.816223,203.500076 
	C413.816345,176.004364 413.819458,148.508636 413.814697,121.012924 
	C413.813293,112.945671 412.325714,111.469589 404.126953,111.467606 
	C369.632202,111.459244 335.137451,111.464073 300.642700,111.464073 
	C232.986298,111.464073 165.329910,111.461060 97.673515,111.467911 
	C89.243935,111.468765 88.092644,112.620987 88.092506,120.876137 
	C88.091644,172.701599 88.091385,224.527054 88.093178,276.352509 
	C88.093468,284.691071 89.378929,286.014282 97.451836,286.014313 
	C199.936264,286.014679 302.420685,286.014771 404.905121,286.014038 
	C412.422760,286.014008 413.810120,284.622589 413.812805,276.989075 
	C413.821320,252.826080 413.816101,228.663086 413.816223,203.500076 
z"/>
<path fill="#F41B8A" opacity="1.000000" stroke="none" 
	d="
M31.814146,400.033905 
	C27.853853,398.154144 28.173378,395.112915 30.273647,392.320862 
	C44.003010,374.069214 57.836426,355.895294 71.754265,337.786987 
	C72.991745,336.176941 75.073898,335.216095 77.607620,333.961060 
	C147.939285,333.997162 217.427109,334.025909 286.947449,334.511719 
	C286.979950,338.541351 286.979950,342.113983 286.979950,346.000000 
	C284.348694,346.000000 282.538452,346.000000 280.728210,346.000000 
	C259.955750,346.000000 239.183136,345.964355 218.411133,346.062408 
	C216.596939,346.071014 214.786880,346.958282 212.740341,347.687073 
	C211.679306,349.186798 210.359924,350.345154 210.107468,351.702026 
	C208.616684,359.714661 207.187149,367.748383 206.101883,375.824005 
	C205.082977,383.405853 206.856018,385.173370 214.514114,385.173553 
	C238.594559,385.174103 262.675018,385.156342 286.755341,385.209900 
	C288.501556,385.213776 290.246674,385.733459 291.966125,386.063110 
	C291.939972,386.112885 291.886749,386.211914 291.593109,386.477631 
	C291.200043,388.559692 291.038361,390.375092 291.011810,392.192505 
	C290.883545,400.976410 292.066345,399.985107 283.384918,399.988434 
	C199.528000,400.020599 115.671066,400.023010 31.814146,400.033905 
M173.021851,360.819794 
	C175.579224,360.599823 178.334335,360.463654 178.079559,356.852966 
	C177.822433,353.209076 174.821716,353.770264 172.427536,353.521423 
	C171.933578,353.470093 171.429916,353.511108 170.930725,353.511108 
	C141.145599,353.511017 111.360367,353.477325 81.575493,353.564819 
	C78.685081,353.573303 74.232460,352.449646 74.346649,357.243622 
	C74.457283,361.887939 78.826874,360.770569 81.759697,360.777527 
	C111.877449,360.849060 141.995438,360.821289 173.021851,360.819794 
M131.500000,378.998932 
	C140.827362,378.998932 150.154724,379.003326 159.482086,378.997162 
	C164.478500,378.993866 169.491455,379.189178 174.460022,378.810547 
	C175.741730,378.712860 176.884033,376.785950 178.090363,375.699371 
	C176.861816,374.469482 175.700638,373.157532 174.363525,372.059937 
	C173.964111,371.732056 173.072281,372.001495 172.406067,372.001495 
	C141.592453,372.001099 110.778831,372.000305 79.965210,372.005371 
	C78.967842,372.005524 77.738655,371.713470 77.026276,372.180786 
	C75.894783,372.923004 74.433060,374.149841 74.365761,375.248596 
	C74.298325,376.349365 75.530121,377.998077 76.629242,378.576172 
	C77.836754,379.211304 79.542702,378.983917 81.031662,378.985809 
	C97.521088,379.006622 114.010551,378.998932 131.500000,378.998932 
z"/>
<path fill="#F41B8A" opacity="1.000000" stroke="none" 
	d="
M424.549011,333.870026 
	C426.680176,335.289551 429.368896,336.277130 430.855591,338.195984 
	C444.487549,355.790070 457.940125,373.523651 471.373047,391.271027 
	C474.432709,395.313416 473.878296,397.784485 469.011169,400.477112 
	C466.500977,400.180389 464.681274,400.013000 462.861542,400.012512 
	C409.613434,399.998566 356.365356,400.001251 303.117249,400.001251 
	C292.074371,400.001251 292.076721,400.001190 291.994110,389.203278 
	C291.986481,388.205963 291.923828,387.209015 291.886749,386.211914 
	C291.886749,386.211914 291.939972,386.112885 292.336945,386.056610 
	C296.440887,384.743591 297.120819,382.071075 296.516693,378.524017 
	C294.921478,369.158234 293.474304,359.767181 291.963196,350.016022 
	C291.285126,349.103851 290.612122,348.561890 289.971527,348.014801 
	C290.003967,348.009705 289.996582,348.074982 289.838989,347.783691 
	C289.275543,347.342804 288.869720,347.193176 288.457458,347.062561 
	C288.450989,347.081573 288.477600,347.114197 288.405151,346.660645 
	C288.521881,342.121216 288.711060,338.035370 289.374908,333.964417 
	C334.749420,333.942871 379.649200,333.906464 424.549011,333.870026 
M330.055511,353.511200 
	C329.556427,353.517273 329.054840,353.493256 328.558685,353.534485 
	C326.147888,353.734894 323.233459,354.113770 323.948456,357.209015 
	C324.293457,358.702637 327.002991,359.780365 328.802734,360.746735 
	C329.578369,361.163239 330.761932,360.821472 331.760193,360.821503 
	C361.042633,360.821838 390.325104,360.851562 419.607361,360.778076 
	C422.698456,360.770325 427.428406,362.050476 427.531769,357.256287 
	C427.637756,352.342834 422.840698,353.574249 419.789337,353.564972 
	C390.174438,353.474670 360.559143,353.511047 330.055511,353.511200 
M325.291748,372.474396 
	C322.721680,376.923309 323.690430,378.956329 328.723694,378.966248 
	C360.051392,379.027954 391.379669,379.052399 422.706116,378.843719 
	C424.383392,378.832550 426.045837,376.600616 427.715179,375.402466 
	C426.007568,374.268738 424.304718,372.154846 422.591614,372.146484 
	C390.433655,371.989258 358.274475,372.081665 325.291748,372.474396 
z"/>
<path fill="#FFFFFF" opacity="1.000000" stroke="none" 
	d="
M127.391464,326.077881 
	C126.938660,320.999847 126.956688,315.977875 127.035492,310.494629 
	C209.505646,310.033325 291.915009,310.033325 374.642456,310.033325 
	C374.642456,315.370758 374.642456,320.573853 374.642456,326.133972 
	C292.291687,326.133972 210.076996,326.133972 127.391464,326.077881 
z"/>
<path fill="#E94398" opacity="1.000000" stroke="none" 
	d="
M291.593109,386.477631 
	C291.923828,387.209015 291.986481,388.205963 291.994110,389.203278 
	C292.076721,400.001190 292.074371,400.001251 303.117249,400.001251 
	C356.365356,400.001251 409.613434,399.998566 462.861542,400.012512 
	C464.681274,400.013000 466.500977,400.180389 468.655762,400.510986 
	C467.165588,400.827057 465.340363,400.967682 463.515137,400.967834 
	C321.636871,400.977966 179.758591,400.978333 37.880318,400.964233 
	C36.060917,400.964050 34.241535,400.769043 32.118145,400.349426 
	C115.671066,400.023010 199.528000,400.020599 283.384918,399.988434 
	C292.066345,399.985107 290.883545,400.976410 291.011810,392.192505 
	C291.038361,390.375092 291.200043,388.559692 291.593109,386.477631 
z"/>
<path fill="#E74398" opacity="1.000000" stroke="none" 
	d="
M286.914917,334.054688 
	C217.427109,334.025909 147.939285,333.997162 77.938797,333.951752 
	C79.004898,333.630493 80.583542,333.060303 82.162476,333.059509 
	C150.143784,333.025482 218.125122,333.041992 286.561981,333.351349 
	C287.017517,333.650330 286.914917,334.054688 286.914917,334.054688 
z"/>
<path fill="#E84599" opacity="1.000000" stroke="none" 
	d="
M424.192993,333.575562 
	C379.649200,333.906464 334.749420,333.942871 289.358398,333.788574 
	C288.867218,333.597839 288.864227,333.243622 288.864227,333.243622 
	C298.822113,333.170105 308.779968,333.041229 318.737885,333.033173 
	C351.785950,333.006378 384.833984,333.018616 417.882050,333.034088 
	C419.867065,333.035034 421.852020,333.195099 424.192993,333.575562 
z"/>
<path fill="#FA8CC5" opacity="1.000000" stroke="none" 
	d="
M288.561157,333.187531 
	C288.864227,333.243622 288.867218,333.597839 288.883728,333.773682 
	C288.711060,338.035370 288.521881,342.121216 287.901001,346.715698 
	C262.637787,347.295349 237.806351,347.366364 212.974899,347.437408 
	C214.786880,346.958282 216.596939,346.071014 218.411133,346.062408 
	C239.183136,345.964355 259.955750,346.000000 280.728210,346.000000 
	C282.538452,346.000000 284.348694,346.000000 286.979950,346.000000 
	C286.979950,342.113983 286.979950,338.541351 286.947449,334.511719 
	C286.914917,334.054688 287.017517,333.650330 287.024780,333.441895 
	C287.440765,333.199432 287.849426,333.165436 288.561157,333.187531 
z"/>
<path fill="#090909" opacity="1.000000" stroke="none" 
	d="
M413.816223,204.000092 
	C413.816101,228.663086 413.821320,252.826080 413.812805,276.989075 
	C413.810120,284.622589 412.422760,286.014008 404.905121,286.014038 
	C302.420685,286.014771 199.936264,286.014679 97.451836,286.014313 
	C89.378929,286.014282 88.093468,284.691071 88.093178,276.352509 
	C88.091385,224.527054 88.091644,172.701599 88.092506,120.876137 
	C88.092644,112.620987 89.243935,111.468765 97.673515,111.467911 
	C165.329910,111.461060 232.986298,111.464073 300.642700,111.464073 
	C335.137451,111.464073 369.632202,111.459244 404.126953,111.467606 
	C412.325714,111.469589 413.813293,112.945671 413.814697,121.012924 
	C413.819458,148.508636 413.816345,176.004364 413.816223,204.000092 
M178.499100,278.992981 
	C178.499100,278.992981 178.946198,278.871368 179.886322,278.962219 
	C247.782944,278.967468 315.679565,278.977234 383.576172,278.971619 
	C391.062042,278.971008 398.547943,278.882202 406.816986,278.506805 
	C406.878052,277.845581 406.992554,277.184326 406.992676,276.523102 
	C407.001526,225.045639 407.004395,173.568192 406.983948,122.090736 
	C406.983459,120.834694 406.715210,119.578773 406.574951,118.350113 
	C302.614746,118.350113 199.062469,118.350113 95.235687,118.350113 
	C95.139557,119.898582 94.989784,121.188240 94.989487,122.477928 
	C94.977623,173.289017 94.971870,224.100098 95.021057,274.911163 
	C95.022324,276.223694 95.644135,277.535675 96.910889,278.958801 
	C123.958488,278.929657 151.006088,278.900513 178.499100,278.992981 
z"/>
<path fill="#050505" opacity="1.000000" stroke="none" 
	d="
M212.740341,347.687073 
	C237.806351,347.366364 262.637787,347.295349 287.973419,347.169250 
	C288.477600,347.114197 288.450989,347.081573 288.622131,347.341553 
	C289.194397,347.759308 289.595490,347.917145 289.996582,348.074982 
	C289.996582,348.074982 290.003967,348.009705 290.070587,348.318085 
	C290.747528,349.213043 291.357880,349.799622 291.968201,350.386200 
	C293.474304,359.767181 294.921478,369.158234 296.516693,378.524017 
	C297.120819,382.071075 296.440887,384.743591 292.363098,386.006836 
	C290.246674,385.733459 288.501556,385.213776 286.755341,385.209900 
	C262.675018,385.156342 238.594559,385.174103 214.514114,385.173553 
	C206.856018,385.173370 205.082977,383.405853 206.101883,375.824005 
	C207.187149,367.748383 208.616684,359.714661 210.107468,351.702026 
	C210.359924,350.345154 211.679306,349.186798 212.740341,347.687073 
M287.875671,368.723785 
	C287.098083,363.687164 286.320526,358.650543 285.515045,353.433228 
	C262.381653,353.433228 239.493988,353.433228 216.308319,353.433228 
	C215.118759,361.937012 213.959335,370.225403 212.767487,378.745605 
	C238.464935,378.745605 263.685547,378.745605 289.111450,378.745605 
	C288.701141,375.518280 288.325531,372.563690 287.875671,368.723785 
z"/>
<path fill="#090708" opacity="1.000000" stroke="none" 
	d="
M172.567612,360.820496 
	C141.995438,360.821289 111.877449,360.849060 81.759697,360.777527 
	C78.826874,360.770569 74.457283,361.887939 74.346649,357.243622 
	C74.232460,352.449646 78.685081,353.573303 81.575493,353.564819 
	C111.360367,353.477325 141.145599,353.511017 170.930725,353.511108 
	C171.429916,353.511108 171.933578,353.470093 172.427536,353.521423 
	C174.821716,353.770264 177.822433,353.209076 178.079559,356.852966 
	C178.334335,360.463654 175.579224,360.599823 172.567612,360.820496 
z"/>
<path fill="#010101" opacity="1.000000" stroke="none" 
	d="
M131.000000,378.998932 
	C114.010551,378.998932 97.521088,379.006622 81.031662,378.985809 
	C79.542702,378.983917 77.836754,379.211304 76.629242,378.576172 
	C75.530121,377.998077 74.298325,376.349365 74.365761,375.248596 
	C74.433060,374.149841 75.894783,372.923004 77.026276,372.180786 
	C77.738655,371.713470 78.967842,372.005524 79.965210,372.005371 
	C110.778831,372.000305 141.592453,372.001099 172.406067,372.001495 
	C173.072281,372.001495 173.964111,371.732056 174.363525,372.059937 
	C175.700638,373.157532 176.861816,374.469482 178.090363,375.699341 
	C176.884033,376.785950 175.741730,378.712860 174.460022,378.810547 
	C169.491455,379.189178 164.478500,378.993866 159.482086,378.997162 
	C150.154724,379.003326 140.827362,378.998932 131.000000,378.998932 
z"/>
<path fill="#090708" opacity="1.000000" stroke="none" 
	d="
M330.499756,353.511230 
	C360.559143,353.511047 390.174438,353.474670 419.789337,353.564972 
	C422.840698,353.574249 427.637756,352.342834 427.531769,357.256287 
	C427.428406,362.050476 422.698456,360.770325 419.607361,360.778076 
	C390.325104,360.851562 361.042633,360.821838 331.760193,360.821503 
	C330.761932,360.821472 329.578369,361.163239 328.802734,360.746735 
	C327.002991,359.780365 324.293457,358.702637 323.948456,357.209015 
	C323.233459,354.113770 326.147888,353.734894 328.558685,353.534485 
	C329.054840,353.493256 329.556427,353.517273 330.499756,353.511230 
z"/>
<path fill="#010101" opacity="1.000000" stroke="none" 
	d="
M325.703674,372.298126 
	C358.274475,372.081665 390.433655,371.989258 422.591614,372.146484 
	C424.304718,372.154846 426.007568,374.268738 427.715179,375.402466 
	C426.045837,376.600616 424.383392,378.832550 422.706116,378.843719 
	C391.379669,379.052399 360.051392,379.027954 328.723694,378.966248 
	C323.690430,378.956329 322.721680,376.923309 325.703674,372.298126 
z"/>
<path fill="#E84599" opacity="1.000000" stroke="none" 
	d="
M291.963196,350.016022 
	C291.357880,349.799622 290.747528,349.213043 290.038147,348.323181 
	C290.612122,348.561890 291.285126,349.103851 291.963196,350.016022 
z"/>
<path fill="#E84599" opacity="1.000000" stroke="none" 
	d="
M289.838989,347.783691 
	C289.595490,347.917145 289.194397,347.759308 288.628601,347.322510 
	C288.869720,347.193176 289.275543,347.342804 289.838989,347.783691 
z"/>
<path fill="#F61A8B" opacity="1.000000" stroke="none" 
	d="
M406.033813,278.834320 
	C398.547943,278.882202 391.062042,278.971008 383.576172,278.971619 
	C315.679565,278.977234 247.782944,278.967468 179.414673,278.456726 
	C178.976730,271.381958 179.010437,264.812653 179.403778,258.135895 
	C183.445679,256.819916 184.039001,253.949356 184.031204,250.545303 
	C183.981308,228.779999 184.012390,207.014526 184.002197,185.249100 
	C183.998795,177.998016 182.204865,176.227280 174.846985,176.202332 
	C157.902390,176.144882 140.957718,176.106064 123.745178,176.045410 
	C123.016174,176.255508 122.555069,176.479858 121.794365,176.878113 
	C120.566147,178.063477 119.637520,179.074936 118.472275,180.413818 
	C118.154312,204.716812 118.065521,228.692398 118.025734,252.668076 
	C118.024475,253.427505 118.527695,254.187790 118.988976,255.230469 
	C120.430779,256.654877 121.679344,257.796478 123.400208,258.968933 
	C140.446487,259.006317 157.021210,259.096558 173.593857,258.951324 
	C177.052994,258.920959 178.295700,259.957306 178.123917,263.460663 
	C177.872543,268.586365 178.055710,273.733429 178.053680,278.871368 
	C151.006088,278.900513 123.958488,278.929657 96.443794,278.444885 
	C95.976700,225.165741 95.976700,172.400528 95.976700,119.471481 
	C199.642944,119.471481 302.649506,119.471481 406.033813,119.471481 
	C406.033813,172.889450 406.033813,225.861893 406.033813,278.834320 
M382.966248,253.466354 
	C382.261078,252.860825 381.555908,252.255280 380.199127,251.198730 
	C379.540924,251.128464 378.882721,250.996780 378.224518,250.996674 
	C323.143250,250.987152 268.062012,250.983383 212.980759,251.015213 
	C211.702835,251.015961 210.425140,251.425446 208.515350,251.970444 
	C207.906021,252.675400 207.296692,253.380356 206.342896,254.367096 
	C206.444427,254.874252 206.545944,255.381424 207.006165,256.568268 
	C207.779129,257.219391 208.552078,257.870514 209.971375,258.891663 
	C266.225922,258.931671 322.480469,258.976868 378.735016,258.972961 
	C379.804932,258.972870 380.874756,258.392700 382.280182,257.535187 
	C382.625885,256.997009 382.971588,256.458832 383.661316,255.625626 
	C383.542389,255.112411 383.423462,254.599197 382.966248,253.466354 
M381.518372,232.837143 
	C382.099457,232.202377 382.680542,231.567612 383.668365,230.538895 
	C383.504181,229.706009 383.339966,228.873138 382.635834,227.451294 
	C380.909454,227.026016 379.183533,226.231110 377.456665,226.229065 
	C322.379028,226.163849 267.301300,226.157776 212.223755,226.253830 
	C210.422867,226.256958 208.624023,227.418427 206.392960,228.406845 
	C206.504868,229.248947 206.616776,230.091049 207.035446,231.516739 
	C207.703857,232.074814 208.372269,232.632904 209.680054,233.705200 
	C210.664093,233.805511 211.648117,233.993317 212.632172,233.993561 
	C267.322418,234.007675 322.012695,234.012421 376.702911,233.970932 
	C378.120911,233.969864 379.538513,233.446167 381.518372,232.837143 
M381.537415,182.878647 
	C382.112152,182.230042 382.686890,181.581436 383.668915,180.536911 
	C383.499634,179.703918 383.330322,178.870926 382.591095,177.482468 
	C380.872681,177.046799 379.154724,176.232468 377.435791,176.230377 
	C322.364899,176.163635 267.293915,176.157776 212.223145,176.253845 
	C210.422470,176.256973 208.623840,177.418350 206.395081,178.402191 
	C206.495163,179.239609 206.595245,180.077011 207.020889,181.495209 
	C207.694153,182.060471 208.367416,182.625717 209.680023,183.705215 
	C210.664017,183.805511 211.648010,183.993317 212.632019,183.993576 
	C267.319885,184.007675 322.007721,184.012329 376.695557,183.971497 
	C378.115753,183.970444 379.535583,183.455048 381.537415,182.878647 
M207.317612,206.570862 
	C209.029968,207.047379 210.741791,207.938080 212.454773,207.940353 
	C267.400421,208.013382 322.346222,208.021561 377.291809,207.914688 
	C379.250458,207.910873 381.206604,206.641281 383.601349,205.594604 
	C383.481049,204.750412 383.360748,203.906219 382.876007,202.469131 
	C381.898438,201.898682 380.920837,201.328217 379.293060,200.265228 
	C378.304443,200.174774 377.315857,200.005371 376.327209,200.005142 
	C322.337189,199.992401 268.347168,199.987991 214.357162,200.025864 
	C212.923630,200.026871 211.490417,200.503098 209.402252,200.993683 
	C208.521286,201.682938 207.640320,202.372208 206.345230,203.448013 
	C206.497925,204.282684 206.650620,205.117371 207.317612,206.570862 
M383.675171,143.613159 
	C383.547485,143.099289 383.419800,142.585419 382.934509,141.375290 
	C380.463715,140.752182 377.993530,139.587234 375.522034,139.584427 
	C292.546448,139.489822 209.570740,139.505081 126.595039,139.513016 
	C125.099121,139.513153 123.399139,139.193970 122.161469,139.788269 
	C120.767090,140.457809 118.834724,142.038254 118.885193,143.142548 
	C118.941231,144.368668 120.781281,145.945740 122.195755,146.555847 
	C123.615044,147.168015 125.467064,146.819229 127.129440,146.819397 
	C195.776001,146.826523 264.422546,146.825500 333.069122,146.825485 
	C347.564880,146.825485 362.062836,146.951080 376.554077,146.695221 
	C378.831055,146.655029 381.077484,144.885269 383.675171,143.613159 
z"/>
<path fill="#D0478E" opacity="1.000000" stroke="none" 
	d="
M406.425415,278.670563 
	C406.033813,225.861893 406.033813,172.889450 406.033813,119.471481 
	C302.649506,119.471481 199.642944,119.471481 95.976700,119.471481 
	C95.976700,172.400528 95.976700,225.165741 95.976624,278.389435 
	C95.644135,277.535675 95.022324,276.223694 95.021057,274.911163 
	C94.971870,224.100098 94.977623,173.289017 94.989487,122.477928 
	C94.989784,121.188240 95.139557,119.898582 95.235687,118.350113 
	C199.062469,118.350113 302.614746,118.350113 406.574951,118.350113 
	C406.715210,119.578773 406.983459,120.834694 406.983948,122.090736 
	C407.004395,173.568192 407.001526,225.045639 406.992676,276.523102 
	C406.992554,277.184326 406.878052,277.845581 406.425415,278.670563 
z"/>
<path fill="#CA488B" opacity="1.000000" stroke="none" 
	d="
M179.044128,258.243378 
	C179.010437,264.812653 178.976730,271.381958 178.944611,278.411316 
	C178.946198,278.871368 178.499100,278.992981 178.276398,278.932190 
	C178.055710,273.733429 177.872543,268.586365 178.123917,263.460663 
	C178.295700,259.957306 177.052994,258.920959 173.593857,258.951324 
	C157.021210,259.096558 140.446487,259.006317 123.658257,258.623718 
	C141.977386,258.246246 160.510757,258.244812 179.044128,258.243378 
z"/>
<path fill="#FCFCFC" opacity="1.000000" stroke="none" 
	d="
M287.912781,369.166443 
	C288.325531,372.563690 288.701141,375.518280 289.111450,378.745605 
	C263.685547,378.745605 238.464935,378.745605 212.767487,378.745605 
	C213.959335,370.225403 215.118759,361.937012 216.308319,353.433228 
	C239.493988,353.433228 262.381653,353.433228 285.515045,353.433228 
	C286.320526,358.650543 287.098083,363.687164 287.912781,369.166443 
z"/>
<path fill="#090708" opacity="1.000000" stroke="none" 
	d="
M383.338074,143.915222 
	C381.077484,144.885269 378.831055,146.655029 376.554077,146.695221 
	C362.062836,146.951080 347.564880,146.825485 333.069122,146.825485 
	C264.422546,146.825500 195.776001,146.826523 127.129440,146.819397 
	C125.467064,146.819229 123.615044,147.168015 122.195755,146.555847 
	C120.781281,145.945740 118.941231,144.368668 118.885193,143.142548 
	C118.834724,142.038254 120.767090,140.457809 122.161469,139.788269 
	C123.399139,139.193970 125.099121,139.513153 126.595039,139.513016 
	C209.570740,139.505081 292.546448,139.489822 375.522034,139.584427 
	C377.993530,139.587234 380.463715,140.752182 383.057739,142.029678 
	C383.233337,143.094452 383.285706,143.504852 383.338074,143.915222 
z"/>
<path fill="#020202" opacity="1.000000" stroke="none" 
	d="
M179.403793,258.135895 
	C160.510757,258.244812 141.977386,258.246246 123.185959,258.592896 
	C121.679344,257.796478 120.430779,256.654877 118.988815,254.765930 
	C118.766571,229.374527 118.737732,204.730469 118.708893,180.086411 
	C119.637520,179.074936 120.566147,178.063477 122.057747,176.902054 
	C123.084846,176.521301 123.548965,176.290497 124.013092,176.059692 
	C140.957718,176.106064 157.902390,176.144882 174.846985,176.202332 
	C182.204865,176.227280 183.998795,177.998016 184.002197,185.249100 
	C184.012390,207.014526 183.981308,228.779999 184.031204,250.545303 
	C184.039001,253.949356 183.445679,256.819916 179.403793,258.135895 
M141.502594,183.032913 
	C136.225983,183.032913 130.949356,183.032913 125.582565,183.032913 
	C125.582565,206.198608 125.582565,228.858353 125.582565,251.564850 
	C142.871750,251.564850 159.761719,251.564850 176.690399,251.564850 
	C176.690399,228.609970 176.690399,205.924759 176.690399,183.032913 
	C165.088135,183.032913 153.794983,183.032913 141.502594,183.032913 
z"/>
<path fill="#000000" opacity="1.000000" stroke="none" 
	d="
M206.759354,203.061462 
	C207.640320,202.372208 208.521286,201.682938 210.190582,200.931564 
	C232.308578,200.876938 253.638275,200.904449 274.967926,200.887390 
	C309.959717,200.859421 344.951477,200.802490 379.943268,200.757767 
	C380.920837,201.328217 381.898438,201.898682 383.010742,203.125656 
	C383.151611,204.508667 383.157745,205.235138 383.163940,205.961624 
	C381.206604,206.641281 379.250458,207.910873 377.291809,207.914688 
	C322.346222,208.021561 267.400421,208.013382 212.454773,207.940353 
	C210.741791,207.938080 209.029968,207.047379 207.074341,205.899445 
	C206.807159,204.505844 206.783264,203.783661 206.759354,203.061462 
z"/>
<path fill="#090708" opacity="1.000000" stroke="none" 
	d="
M206.824249,178.039810 
	C208.623840,177.418350 210.422470,176.256973 212.223145,176.253845 
	C267.293915,176.157776 322.364899,176.163635 377.435791,176.230377 
	C379.154724,176.232468 380.872681,177.046799 382.870789,178.122955 
	C383.187531,179.486557 383.224579,180.209702 383.261597,180.932831 
	C382.686890,181.581436 382.112152,182.230042 380.782898,182.993988 
	C323.032471,183.136551 266.036560,183.163757 209.040680,183.190979 
	C208.367416,182.625717 207.694153,182.060471 206.891052,180.846619 
	C206.782242,179.478638 206.803253,178.759216 206.824249,178.039810 
z"/>
<path fill="#090708" opacity="1.000000" stroke="none" 
	d="
M383.261627,230.932846 
	C382.680542,231.567612 382.099457,232.202377 380.773438,232.972137 
	C323.032562,233.135086 266.036621,233.163025 209.040695,233.190979 
	C208.372269,232.632904 207.703857,232.074814 206.913757,230.863907 
	C206.802795,229.487366 206.813507,228.763657 206.824219,228.039948 
	C208.624023,227.418427 210.422867,226.256958 212.223755,226.253830 
	C267.301300,226.157776 322.379028,226.163849 377.456665,226.229065 
	C379.183533,226.231110 380.909454,227.026016 382.894592,228.108124 
	C383.189453,229.487595 383.225525,230.210220 383.261627,230.932846 
z"/>
<path fill="#000000" opacity="1.000000" stroke="none" 
	d="
M206.687363,254.085312 
	C207.296692,253.380356 207.906021,252.675400 209.283417,251.840286 
	C266.984558,251.690002 323.917664,251.669876 380.850739,251.649734 
	C381.555908,252.255280 382.261078,252.860825 383.075317,254.079926 
	C383.228699,255.102554 383.273010,255.511627 383.317322,255.920685 
	C382.971588,256.458832 382.625885,256.997009 381.652588,257.854736 
	C379.031189,258.225525 377.037384,258.321106 375.043579,258.321442 
	C325.123657,258.329681 275.203766,258.322113 225.283859,258.336426 
	C219.964233,258.337952 214.644653,258.457062 209.325043,258.521637 
	C208.552078,257.870514 207.779129,257.219391 206.891418,255.931290 
	C206.746902,254.891312 206.717133,254.488312 206.687363,254.085312 
z"/>
<path fill="#F31B8A" opacity="1.000000" stroke="none" 
	d="
M209.648209,258.706665 
	C214.644653,258.457062 219.964233,258.337952 225.283859,258.336426 
	C275.203766,258.322113 325.123657,258.329681 375.043579,258.321442 
	C377.037384,258.321106 379.031189,258.225525 381.484802,258.128723 
	C380.874756,258.392700 379.804932,258.972870 378.735016,258.972961 
	C322.480469,258.976868 266.225922,258.931671 209.648209,258.706665 
z"/>
<path fill="#F31B8A" opacity="1.000000" stroke="none" 
	d="
M380.524933,251.424225 
	C323.917664,251.669876 266.984558,251.690002 209.599396,251.677200 
	C210.425140,251.425446 211.702835,251.015961 212.980759,251.015213 
	C268.062012,250.983383 323.143250,250.987152 378.224518,250.996674 
	C378.882721,250.996780 379.540924,251.128464 380.524933,251.424225 
z"/>
<path fill="#F31B8A" opacity="1.000000" stroke="none" 
	d="
M209.360352,183.448090 
	C266.036560,183.163757 323.032471,183.136551 380.491943,183.144424 
	C379.535583,183.455048 378.115753,183.970444 376.695557,183.971497 
	C322.007721,184.012329 267.319885,184.007675 212.632019,183.993576 
	C211.648010,183.993317 210.664017,183.805511 209.360352,183.448090 
z"/>
<path fill="#F31B8A" opacity="1.000000" stroke="none" 
	d="
M209.360382,233.448090 
	C266.036621,233.163025 323.032562,233.135086 380.492371,233.136658 
	C379.538513,233.446167 378.120911,233.969864 376.702911,233.970932 
	C322.012695,234.012421 267.322418,234.007675 212.632172,233.993561 
	C211.648117,233.993317 210.664093,233.805511 209.360382,233.448090 
z"/>
<path fill="#F31B8A" opacity="1.000000" stroke="none" 
	d="
M379.618164,200.511505 
	C344.951477,200.802490 309.959717,200.859421 274.967926,200.887390 
	C253.638275,200.904449 232.308578,200.876938 210.517975,200.813568 
	C211.490417,200.503098 212.923630,200.026871 214.357162,200.025864 
	C268.347168,199.987991 322.337189,199.992401 376.327209,200.005142 
	C377.315857,200.005371 378.304443,200.174774 379.618164,200.511505 
z"/>
<path fill="#F31B8A" opacity="1.000000" stroke="none" 
	d="
M118.472275,180.413818 
	C118.737732,204.730469 118.766571,229.374527 118.795578,254.483124 
	C118.527695,254.187790 118.024475,253.427505 118.025734,252.668076 
	C118.065521,228.692398 118.154312,204.716812 118.472275,180.413818 
z"/>
<path fill="#F31B8A" opacity="1.000000" stroke="none" 
	d="
M206.608582,228.223389 
	C206.813507,228.763657 206.802795,229.487366 206.760376,230.572113 
	C206.616776,230.091049 206.504868,229.248947 206.608582,228.223389 
z"/>
<path fill="#F31B8A" opacity="1.000000" stroke="none" 
	d="
M383.382629,205.778107 
	C383.157745,205.235138 383.151611,204.508667 383.192932,203.422104 
	C383.360748,203.906219 383.481049,204.750412 383.382629,205.778107 
z"/>
<path fill="#F31B8A" opacity="1.000000" stroke="none" 
	d="
M206.552292,203.254730 
	C206.783264,203.783661 206.807159,204.505844 206.817169,205.590042 
	C206.650620,205.117371 206.497925,204.282684 206.552292,203.254730 
z"/>
<path fill="#F31B8A" opacity="1.000000" stroke="none" 
	d="
M383.464996,230.735870 
	C383.225525,230.210220 383.189453,229.487595 383.164551,228.402618 
	C383.339966,228.873138 383.504181,229.706009 383.464996,230.735870 
z"/>
<path fill="#F31B8A" opacity="1.000000" stroke="none" 
	d="
M383.465271,180.734863 
	C383.224579,180.209702 383.187531,179.486557 383.155762,178.400665 
	C383.330322,178.870926 383.499634,179.703918 383.465271,180.734863 
z"/>
<path fill="#F31B8A" opacity="1.000000" stroke="none" 
	d="
M206.609680,178.221008 
	C206.803253,178.759216 206.782242,179.478638 206.728271,180.556244 
	C206.595245,180.077011 206.495163,179.239609 206.609680,178.221008 
z"/>
<path fill="#F31B8A" opacity="1.000000" stroke="none" 
	d="
M383.489319,255.773163 
	C383.273010,255.511627 383.228699,255.102554 383.244446,254.389740 
	C383.423462,254.599197 383.542389,255.112411 383.489319,255.773163 
z"/>
<path fill="#F31B8A" opacity="1.000000" stroke="none" 
	d="
M206.515137,254.226196 
	C206.717133,254.488312 206.746902,254.891312 206.712067,255.591446 
	C206.545944,255.381424 206.444427,254.874252 206.515137,254.226196 
z"/>
<path fill="#F31B8A" opacity="1.000000" stroke="none" 
	d="
M123.745186,176.045425 
	C123.548965,176.290497 123.084846,176.521301 122.357346,176.728149 
	C122.555069,176.479858 123.016174,176.255508 123.745186,176.045425 
z"/>
<path fill="#F31B8A" opacity="1.000000" stroke="none" 
	d="
M383.506622,143.764191 
	C383.285706,143.504852 383.233337,143.094452 383.236542,142.377808 
	C383.419800,142.585419 383.547485,143.099289 383.506622,143.764191 
z"/>
<path fill="#FDFDFD" opacity="1.000000" stroke="none" 
	d="
M142.002197,183.032913 
	C153.794983,183.032913 165.088135,183.032913 176.690399,183.032913 
	C176.690399,205.924759 176.690399,228.609970 176.690399,251.564850 
	C159.761719,251.564850 142.871750,251.564850 125.582565,251.564850 
	C125.582565,228.858353 125.582565,206.198608 125.582565,183.032913 
	C130.949356,183.032913 136.225983,183.032913 142.002197,183.032913 
z"/>
</svg>