<svg version="1.1" id="Layer_1" xmlns="http://www.w3.org/2000/svg" xmlns:xlink="http://www.w3.org/1999/xlink" x="0px" y="0px"
	 width="100%" viewBox="0 0 500 500" enable-background="new 0 0 500 500" xml:space="preserve">
<path fill="#FFFFFF" opacity="1.000000" stroke="none" 
	d="
M320.000000,501.000000 
	C213.333359,501.000000 107.166718,501.000000 1.000057,501.000000 
	C1.000038,334.333405 1.000038,167.666794 1.000019,1.000146 
	C167.666565,1.000098 334.333130,1.000098 500.999756,1.000049 
	C500.999847,167.666519 500.999847,334.333038 500.999939,500.999786 
	C440.833344,501.000000 380.666656,501.000000 320.000000,501.000000 
M350.133514,316.330139 
	C350.133514,316.330139 349.880646,315.924133 350.065399,315.032288 
	C350.009277,311.678497 349.953186,308.324738 350.789490,304.614624 
	C358.121918,304.588684 365.454773,304.605042 372.786621,304.526611 
	C383.089722,304.416412 387.339020,300.189117 387.346649,289.857513 
	C387.379639,245.191025 387.379028,200.524490 387.346191,155.858017 
	C387.338318,145.137451 383.156036,140.987625 372.599030,140.987076 
	C291.765991,140.982788 210.932938,140.982346 130.099884,140.987488 
	C119.056358,140.988190 114.908775,145.058868 114.906563,155.914703 
	C114.897491,200.414536 114.896736,244.914383 114.907173,289.414215 
	C114.909744,300.384979 118.984039,304.469421 129.962204,304.523956 
	C137.223404,304.560028 144.484940,304.530792 152.254013,304.530792 
	C152.254013,308.722473 152.254013,312.358185 152.010483,316.432281 
	C151.998199,316.598999 151.985931,316.765686 151.043167,316.844971 
	C142.382355,316.842133 133.715164,317.041748 125.062820,316.769562 
	C118.645874,316.567719 114.001945,318.964813 110.206146,324.111450 
	C101.318970,336.161407 92.183716,348.029205 83.087517,359.923798 
	C79.901962,364.089386 76.322426,368.295837 79.145470,373.847046 
	C81.860115,379.185120 87.271576,378.836792 92.305771,378.836731 
	C197.900894,378.835175 303.496002,378.835571 409.091125,378.835327 
	C410.423523,378.835327 411.758972,378.889465 413.087799,378.819427 
	C417.488922,378.587524 421.214569,377.209839 423.190521,372.832092 
	C425.041870,368.730316 423.349731,365.482513 420.911621,362.283691 
	C411.027802,349.315918 401.145813,336.346069 391.375183,323.293091 
	C388.007996,318.794769 383.755951,316.710236 378.139618,316.795532 
	C368.814972,316.937134 359.486328,316.817383 350.133514,316.330139 
z"/>
<path fill="#080808" opacity="1.000000" stroke="none" 
	d="
M152.254013,315.993927 
	C152.254013,312.358185 152.254013,308.722473 152.254013,304.530792 
	C144.484940,304.530792 137.223404,304.560028 129.962204,304.523956 
	C118.984039,304.469421 114.909744,300.384979 114.907173,289.414215 
	C114.896736,244.914383 114.897491,200.414536 114.906563,155.914703 
	C114.908775,145.058868 119.056358,140.988190 130.099884,140.987488 
	C210.932938,140.982346 291.765991,140.982788 372.599030,140.987076 
	C383.156036,140.987625 387.338318,145.137451 387.346191,155.858017 
	C387.379028,200.524490 387.379639,245.191025 387.346649,289.857513 
	C387.339020,300.189117 383.089722,304.416412 372.786621,304.526611 
	C365.454773,304.605042 358.121918,304.588684 349.943970,304.813629 
	C347.765900,305.000183 346.433319,304.987762 344.657349,304.788574 
	C282.060028,304.601837 219.906174,304.601837 157.660965,304.601837 
	C157.452560,308.743042 157.269913,312.372742 156.684296,315.997559 
	C154.938904,315.993073 153.596451,315.993500 152.254013,315.993927 
M120.035988,249.500000 
	C120.035995,262.327484 120.035385,275.154999 120.036224,287.982483 
	C120.036850,297.568115 121.793335,299.358429 131.271408,299.359467 
	C174.751419,299.364197 218.231445,299.361572 261.711456,299.361542 
	C298.361298,299.361511 335.011108,299.365967 371.660950,299.358124 
	C380.522186,299.356232 382.026855,297.816956 382.027313,288.836548 
	C382.029602,244.356995 382.032898,199.877426 382.022949,155.397873 
	C382.021301,148.097992 379.932190,146.051117 372.525909,146.050659 
	C291.563110,146.045578 210.600327,146.044464 129.637527,146.052231 
	C122.427643,146.052917 120.041641,148.425369 120.039772,155.542709 
	C120.031631,186.528473 120.036095,217.514236 120.035988,249.500000 
z"/>
<path fill="#000000" opacity="1.000000" stroke="none" 
	d="
M345.100769,304.975342 
	C346.433319,304.987762 347.765900,305.000183 349.497772,304.991791 
	C349.953186,308.324738 350.009277,311.678497 349.681671,315.561310 
	C349.585114,316.329468 349.872253,316.568604 350.159393,316.807739 
	C359.486328,316.817383 368.814972,316.937134 378.139618,316.795532 
	C383.755951,316.710236 388.007996,318.794769 391.375183,323.293091 
	C401.145813,336.346069 411.027802,349.315918 420.911621,362.283691 
	C423.349731,365.482513 425.041870,368.730316 423.190521,372.832092 
	C421.214569,377.209839 417.488922,378.587524 413.087799,378.819427 
	C411.758972,378.889465 410.423523,378.835327 409.091125,378.835327 
	C303.496002,378.835571 197.900894,378.835175 92.305771,378.836731 
	C87.271576,378.836792 81.860115,379.185120 79.145470,373.847046 
	C76.322426,368.295837 79.901962,364.089386 83.087517,359.923798 
	C92.183716,348.029205 101.318970,336.161407 110.206146,324.111450 
	C114.001945,318.964813 118.645874,316.567719 125.062820,316.769562 
	C133.715164,317.041748 142.382355,316.842133 151.656738,317.228638 
	C154.341553,319.177734 156.409622,320.708679 158.461761,316.978668 
	C220.887360,316.872009 282.855194,316.872009 345.100769,316.872009 
	C345.100769,313.246979 345.100769,309.111176 345.100769,304.975342 
M277.611237,322.208344 
	C276.951721,322.139587 276.292236,322.010712 275.632721,322.010590 
	C225.020523,322.000549 174.408310,321.993225 123.796143,322.038147 
	C122.394531,322.039398 120.993423,322.608704 118.925827,322.940948 
	C118.369888,323.282196 117.652740,323.499573 117.281456,323.982727 
	C106.213387,338.386017 95.139229,352.785065 84.178116,367.269623 
	C82.244629,369.824677 83.461632,371.922882 86.712143,373.828705 
	C87.869308,373.909149 89.026466,374.059937 90.183640,374.060059 
	C197.294540,374.070831 304.405457,374.072388 411.516357,374.045776 
	C412.972198,374.045441 414.427948,373.680023 416.571594,373.103638 
	C420.358124,371.073395 419.487000,368.518738 417.422577,365.791351 
	C407.341522,352.473206 397.324158,339.106079 387.126343,325.878021 
	C385.910461,324.300903 383.731018,323.466553 381.083588,322.050598 
	C348.215729,322.033264 315.347839,322.006073 282.480011,322.038086 
	C281.287811,322.039246 280.096222,322.622223 278.499329,322.976257 
	C278.499329,322.976257 278.094360,322.934265 277.611237,322.208344 
z"/>
<path fill="#100B0E" opacity="1.000000" stroke="none" 
	d="
M158.004013,317.085327 
	C156.409622,320.708679 154.341553,319.177734 152.121979,317.272339 
	C151.985931,316.765686 151.998199,316.598999 152.132248,316.213104 
	C153.596451,315.993500 154.938904,315.993073 156.860458,316.157166 
	C157.654037,316.556793 157.842178,316.811340 158.004013,317.085327 
z"/>
<path fill="#757575" opacity="1.000000" stroke="none" 
	d="
M350.146454,316.568939 
	C349.872253,316.568604 349.585114,316.329468 349.589294,316.007233 
	C349.880646,315.924133 350.133514,316.330139 350.146454,316.568939 
z"/>
<path fill="#FEFEFE" opacity="1.000000" stroke="none" 
	d="
M120.035988,249.000000 
	C120.036095,217.514236 120.031631,186.528473 120.039772,155.542709 
	C120.041641,148.425369 122.427643,146.052917 129.637527,146.052231 
	C210.600327,146.044464 291.563110,146.045578 372.525909,146.050659 
	C379.932190,146.051117 382.021301,148.097992 382.022949,155.397873 
	C382.032898,199.877426 382.029602,244.356995 382.027313,288.836548 
	C382.026855,297.816956 380.522186,299.356232 371.660950,299.358124 
	C335.011108,299.365967 298.361298,299.361511 261.711456,299.361542 
	C218.231445,299.361572 174.751419,299.364197 131.271408,299.359467 
	C121.793335,299.358429 120.036850,297.568115 120.036224,287.982483 
	C120.035385,275.154999 120.035995,262.327484 120.035988,249.000000 
M297.499725,286.552917 
	C320.495361,286.552887 343.491028,286.562256 366.486664,286.547180 
	C373.340729,286.542694 374.068848,285.834961 374.070374,279.233093 
	C374.079498,240.073776 374.078888,200.914474 374.071533,161.755157 
	C374.070282,155.107849 373.126831,154.136963 366.693237,154.136581 
	C289.707672,154.131927 212.722137,154.131699 135.736588,154.137115 
	C128.929153,154.137604 128.077820,155.013977 128.076721,161.986191 
	C128.070541,200.812241 128.071671,239.638275 128.075455,278.464325 
	C128.076157,285.742859 128.870255,286.550690 136.029816,286.551147 
	C189.519775,286.554504 243.009735,286.552917 297.499725,286.552917 
z"/>
<path fill="#F9F9F9" opacity="1.000000" stroke="none" 
	d="
M158.461761,316.978668 
	C157.842178,316.811340 157.654037,316.556793 157.263412,316.162048 
	C157.269913,312.372742 157.452560,308.743042 157.660965,304.601837 
	C219.906174,304.601837 282.060028,304.601837 344.657349,304.788574 
	C345.100769,309.111176 345.100769,313.246979 345.100769,316.872009 
	C282.855194,316.872009 220.887360,316.872009 158.461761,316.978668 
z"/>
<path fill="#F21B8A" opacity="1.000000" stroke="none" 
	d="
M381.998230,322.287903 
	C383.731018,323.466553 385.910461,324.300903 387.126343,325.878021 
	C397.324158,339.106079 407.341522,352.473206 417.422577,365.791351 
	C419.487000,368.518738 420.358124,371.073395 415.772064,373.248718 
	C305.332245,373.378143 195.691971,373.362457 86.051689,373.346771 
	C83.461632,371.922882 82.244629,369.824677 84.178116,367.269623 
	C95.139229,352.785065 106.213387,338.386017 117.281456,323.982727 
	C117.652740,323.499573 118.369888,323.282196 119.759354,322.952759 
	C173.093369,322.954468 225.593872,322.944366 278.094360,322.934265 
	C278.094360,322.934265 278.499329,322.976257 279.175415,322.976349 
	C312.291992,322.983704 344.732483,323.001068 377.172974,322.967926 
	C378.781616,322.966278 380.389832,322.524689 381.998230,322.287903 
M221.363022,333.200226 
	C220.163727,340.343201 218.963074,347.485931 217.765564,354.629181 
	C216.765961,360.591888 217.604721,361.599365 223.679291,361.602936 
	C242.279037,361.613892 260.879028,361.554535 279.478394,361.640198 
	C285.510223,361.667969 286.268555,360.966949 285.221893,354.877411 
	C284.163300,348.718109 283.185760,342.539093 281.867188,336.434723 
	C281.576172,335.087463 280.000610,334.017700 278.420593,332.227783 
	C260.378021,332.155487 242.335480,332.072815 224.292862,332.048584 
	C223.560211,332.047577 222.826797,332.597931 221.363022,333.200226 
M316.600769,351.492706 
	C313.936829,351.529846 311.241913,351.348297 308.625275,351.719147 
	C307.669708,351.854584 306.900269,353.302917 306.045898,354.152313 
	C306.907379,355.017181 307.630554,356.187866 308.670471,356.658173 
	C309.647980,357.100250 310.959839,356.827240 312.124603,356.827515 
	C334.282837,356.832397 356.441040,356.832062 378.599274,356.828583 
	C379.764679,356.828400 381.086334,357.127411 382.052948,356.678833 
	C383.083466,356.200623 384.412201,355.013916 384.433350,354.109009 
	C384.452728,353.278931 383.041199,352.046112 382.009277,351.658447 
	C380.834442,351.217041 379.381622,351.495697 378.049622,351.495453 
	C357.890625,351.491394 337.731659,351.492950 316.600769,351.492706 
M174.499512,351.493225 
	C157.031387,351.495148 139.562531,351.431091 122.096428,351.619965 
	C120.647987,351.635620 119.218048,353.362091 117.779510,354.293671 
	C119.153137,355.138824 120.522011,356.711670 121.901093,356.720703 
	C145.190948,356.872650 168.482437,356.880127 191.772034,356.709686 
	C193.215515,356.699097 194.646271,354.950012 196.082932,354.009766 
	C194.711594,353.173248 193.373917,351.688080 191.962997,351.614899 
	C186.487640,351.330872 180.988998,351.495880 174.499512,351.493225 
M322.504913,337.672668 
	C318.345825,337.676819 314.167542,337.456604 310.038422,337.810425 
	C308.649261,337.929474 307.385132,339.507782 306.063843,340.419098 
	C307.458374,341.276978 308.811859,342.216400 310.269043,342.949860 
	C310.800354,343.217285 311.578339,342.995422 312.243805,342.995422 
	C334.370209,342.995575 356.496582,342.998932 378.622986,342.987183 
	C379.948364,342.986481 381.400879,343.174072 382.557343,342.698212 
	C383.425934,342.340820 384.429993,341.052277 384.419189,340.190155 
	C384.409393,339.406036 383.238007,338.226227 382.354614,337.957642 
	C380.970154,337.536743 379.397125,337.682068 377.903931,337.681000 
	C359.770264,337.668243 341.636597,337.672546 322.504913,337.672668 
M188.340057,342.995483 
	C190.005920,342.977814 191.789948,343.319153 193.298264,342.822784 
	C194.397476,342.460999 195.133133,340.994415 196.030884,340.020416 
	C195.100128,339.267273 194.265732,338.294617 193.208130,337.830353 
	C192.359940,337.457977 191.240967,337.677124 190.242142,337.676880 
	C167.909576,337.672058 145.576996,337.670044 123.244438,337.682220 
	C122.083443,337.682861 120.842781,337.587952 119.788132,337.959869 
	C119.017921,338.231476 117.954117,339.223022 117.983429,339.848572 
	C118.028320,340.806427 118.697166,342.238708 119.469215,342.546631 
	C120.788704,343.072815 122.393234,342.979553 123.878212,342.981049 
	C145.044144,343.002167 166.210098,342.995453 188.340057,342.995483 
z"/>
<path fill="#100B0E" opacity="1.000000" stroke="none" 
	d="
M86.381912,373.587738 
	C195.691971,373.362457 305.332245,373.378143 415.428162,373.439423 
	C414.427948,373.680023 412.972198,374.045441 411.516357,374.045776 
	C304.405457,374.072388 197.294540,374.070831 90.183640,374.060059 
	C89.026466,374.059937 87.869308,373.909149 86.381912,373.587738 
z"/>
<path fill="#E84398" opacity="1.000000" stroke="none" 
	d="
M277.852783,322.571289 
	C225.593872,322.944366 173.093369,322.954468 120.092476,322.938843 
	C120.993423,322.608704 122.394531,322.039398 123.796143,322.038147 
	C174.408310,321.993225 225.020523,322.000549 275.632721,322.010590 
	C276.292236,322.010712 276.951721,322.139587 277.852783,322.571289 
z"/>
<path fill="#E74398" opacity="1.000000" stroke="none" 
	d="
M381.540894,322.169250 
	C380.389832,322.524689 378.781616,322.966278 377.172974,322.967926 
	C344.732483,323.001068 312.291992,322.983704 279.377899,322.955261 
	C280.096222,322.622223 281.287811,322.039246 282.480011,322.038086 
	C315.347839,322.006073 348.215729,322.033264 381.540894,322.169250 
z"/>
<path fill="#0D0D0D" opacity="1.000000" stroke="none" 
	d="
M296.999695,286.552917 
	C243.009735,286.552917 189.519775,286.554504 136.029816,286.551147 
	C128.870255,286.550690 128.076157,285.742859 128.075455,278.464325 
	C128.071671,239.638275 128.070541,200.812241 128.076721,161.986191 
	C128.077820,155.013977 128.929153,154.137604 135.736588,154.137115 
	C212.722137,154.131699 289.707672,154.131927 366.693237,154.136581 
	C373.126831,154.136963 374.070282,155.107849 374.071533,161.755157 
	C374.078888,200.914474 374.079498,240.073776 374.070374,279.233093 
	C374.068848,285.834961 373.340729,286.542694 366.486664,286.547180 
	C343.491028,286.562256 320.495361,286.552887 296.999695,286.552917 
M133.228165,160.447083 
	C133.172897,199.901047 133.112991,239.355026 133.101944,278.808990 
	C133.101761,279.471375 133.694565,280.133942 134.936310,280.942352 
	C189.347061,280.950928 243.757828,280.972107 298.168579,280.962128 
	C321.461884,280.957855 344.755219,280.888672 368.829376,280.515533 
	C368.892914,279.855103 369.011902,279.194702 369.012054,278.534271 
	C369.021393,239.908966 369.024567,201.283661 369.002533,162.658371 
	C369.001892,161.561661 368.722107,160.465118 368.557007,159.255020 
	C367.287201,159.181030 366.308807,159.074188 365.330414,159.074081 
	C289.411713,159.066086 213.493027,159.062653 137.574341,159.100082 
	C136.345337,159.100693 135.116592,159.608826 133.993713,159.999939 
	C133.993713,159.999939 133.879517,159.887161 133.228165,160.447083 
z"/>
<path fill="#0D0308" opacity="1.000000" stroke="none" 
	d="
M279.016541,332.820190 
	C280.000610,334.017700 281.576172,335.087463 281.867188,336.434723 
	C283.185760,342.539093 284.163300,348.718109 285.221893,354.877411 
	C286.268555,360.966949 285.510223,361.667969 279.478394,361.640198 
	C260.879028,361.554535 242.279037,361.613892 223.679291,361.602936 
	C217.604721,361.599365 216.765961,360.591888 217.765564,354.629181 
	C218.963074,347.485931 220.163727,340.343201 222.186386,333.097778 
	C241.678680,332.936951 260.347626,332.878571 279.016541,332.820190 
M238.503693,356.959839 
	C252.258270,356.959839 266.012848,356.959839 280.081940,356.959839 
	C279.473053,352.704163 279.055511,348.935822 278.376587,345.215179 
	C276.907776,337.165863 276.852997,337.175842 268.459808,337.175842 
	C254.048370,337.175842 239.636932,337.175873 224.973053,337.175873 
	C224.029099,343.904663 223.142975,350.221130 222.197632,356.959839 
	C227.582260,356.959839 232.544403,356.959839 238.503693,356.959839 
z"/>
<path fill="#0D0A0B" opacity="1.000000" stroke="none" 
	d="
M317.086731,351.492920 
	C337.731659,351.492950 357.890625,351.491394 378.049622,351.495453 
	C379.381622,351.495697 380.834442,351.217041 382.009277,351.658447 
	C383.041199,352.046112 384.452728,353.278931 384.433350,354.109009 
	C384.412201,355.013916 383.083466,356.200623 382.052948,356.678833 
	C381.086334,357.127411 379.764679,356.828400 378.599274,356.828583 
	C356.441040,356.832062 334.282837,356.832397 312.124603,356.827515 
	C310.959839,356.827240 309.647980,357.100250 308.670471,356.658173 
	C307.630554,356.187866 306.907379,355.017181 306.045898,354.152313 
	C306.900269,353.302917 307.669708,351.854584 308.625275,351.719147 
	C311.241913,351.348297 313.936829,351.529846 317.086731,351.492920 
z"/>
<path fill="#0D0A0B" opacity="1.000000" stroke="none" 
	d="
M174.999268,351.493469 
	C180.988998,351.495880 186.487640,351.330872 191.962997,351.614899 
	C193.373917,351.688080 194.711594,353.173248 196.082947,354.009766 
	C194.646271,354.950012 193.215515,356.699097 191.772034,356.709686 
	C168.482437,356.880127 145.190948,356.872650 121.901093,356.720703 
	C120.522011,356.711670 119.153137,355.138824 117.779510,354.293671 
	C119.218048,353.362091 120.647987,351.635620 122.096428,351.619965 
	C139.562531,351.431091 157.031387,351.495148 174.999268,351.493469 
z"/>
<path fill="#010101" opacity="1.000000" stroke="none" 
	d="
M323.003906,337.672546 
	C341.636597,337.672546 359.770264,337.668243 377.903931,337.681000 
	C379.397125,337.682068 380.970154,337.536743 382.354614,337.957642 
	C383.238007,338.226227 384.409393,339.406036 384.419189,340.190155 
	C384.429993,341.052277 383.425934,342.340820 382.557343,342.698212 
	C381.400879,343.174072 379.948364,342.986481 378.622986,342.987183 
	C356.496582,342.998932 334.370209,342.995575 312.243805,342.995422 
	C311.578339,342.995422 310.800354,343.217285 310.269043,342.949860 
	C308.811859,342.216400 307.458374,341.276978 306.063843,340.419098 
	C307.385132,339.507782 308.649261,337.929474 310.038422,337.810425 
	C314.167542,337.456604 318.345825,337.676819 323.003906,337.672546 
z"/>
<path fill="#010101" opacity="1.000000" stroke="none" 
	d="
M187.858047,342.995483 
	C166.210098,342.995453 145.044144,343.002167 123.878212,342.981049 
	C122.393234,342.979553 120.788704,343.072815 119.469215,342.546631 
	C118.697166,342.238708 118.028320,340.806427 117.983429,339.848572 
	C117.954117,339.223022 119.017921,338.231476 119.788132,337.959869 
	C120.842781,337.587952 122.083443,337.682861 123.244438,337.682220 
	C145.576996,337.670044 167.909576,337.672058 190.242142,337.676880 
	C191.240967,337.677124 192.359940,337.457977 193.208130,337.830353 
	C194.265732,338.294617 195.100128,339.267273 196.030884,340.020416 
	C195.133133,340.994415 194.397476,342.460999 193.298264,342.822784 
	C191.789948,343.319153 190.005920,342.977814 187.858047,342.995483 
z"/>
<path fill="#CF96B3" opacity="1.000000" stroke="none" 
	d="
M278.718567,332.523987 
	C260.347626,332.878571 241.678680,332.936951 222.551743,332.943390 
	C222.826797,332.597931 223.560211,332.047577 224.292862,332.048584 
	C242.335480,332.072815 260.378021,332.155487 278.718567,332.523987 
z"/>
<path fill="#F61A8B" opacity="1.000000" stroke="none" 
	d="
M368.048523,280.848969 
	C344.755219,280.888672 321.461884,280.957855 298.168579,280.962128 
	C243.757828,280.972107 189.347061,280.950928 134.476105,280.414612 
	C133.970428,239.886948 133.924973,199.887054 133.879517,159.887161 
	C133.879517,159.887161 133.993713,159.999939 134.415863,159.985657 
	C212.362350,159.971375 289.886688,159.971375 368.048523,159.971375 
	C368.048523,200.716721 368.048523,240.782837 368.048523,280.848969 
M152.311569,180.719757 
	C152.485977,180.858017 152.682770,180.946747 153.851318,180.959534 
	C217.675491,180.973312 281.499664,180.987122 345.323822,181.000336 
	C345.990356,181.000473 346.742828,181.191544 347.305908,180.948120 
	C348.567352,180.402771 349.734619,179.639435 350.940216,178.964874 
	C350.215973,177.831238 349.491730,176.697617 348.116364,175.150024 
	C347.289459,175.095581 346.462555,174.993546 345.635651,174.993454 
	C282.916412,174.986145 220.197159,174.982483 157.477936,175.014435 
	C156.034088,175.015167 154.590424,175.424988 152.497849,175.980988 
	C151.998596,177.032593 151.499359,178.084183 151.109604,179.437683 
	C151.203613,179.633835 151.342010,179.790817 151.905319,180.098068 
	C151.905319,180.098068 152.095871,180.478043 152.311569,180.719757 
M217.316925,224.424637 
	C217.499634,224.941391 217.682358,225.458130 218.349167,226.411423 
	C218.928558,226.701172 219.507950,226.990906 220.739288,227.758499 
	C221.395691,227.840942 222.052078,227.995346 222.708496,227.995544 
	C263.505066,228.007278 304.301636,228.013046 345.098175,227.976013 
	C346.367401,227.974854 347.636230,227.518875 349.616608,226.940521 
	C351.815155,222.921143 351.296326,222.019287 346.406677,222.015945 
	C305.013000,221.987564 263.619263,221.977371 222.225876,222.088745 
	C220.703812,222.092834 219.185287,223.405411 217.316925,224.424637 
M218.243317,245.583679 
	C219.513062,245.895370 220.782501,246.478027 222.052597,246.479477 
	C263.503876,246.526688 304.955261,246.546280 346.406128,246.407089 
	C347.953400,246.401901 349.495270,244.770615 351.039642,243.897110 
	C349.417694,242.985489 347.798553,241.283508 346.173401,241.277740 
	C304.889069,241.131165 263.604034,241.140793 222.319458,241.245132 
	C220.750885,241.249084 219.185379,242.469681 217.291245,243.430969 
	C217.448669,243.938232 217.606110,244.445496 218.243317,245.583679 
M217.344482,205.371460 
	C217.462265,205.889297 217.580048,206.407120 218.159653,207.590134 
	C220.080856,207.900375 222.001709,208.478836 223.923309,208.481323 
	C264.203979,208.533646 304.484772,208.522964 344.765503,208.512573 
	C346.258392,208.512192 347.807892,208.605774 349.220856,208.235413 
	C349.951691,208.043854 350.851746,206.968353 350.924133,206.219604 
	C350.998230,205.453491 350.345581,204.194412 349.668518,203.873276 
	C348.533295,203.334824 347.126495,203.189636 345.833710,203.188629 
	C304.887207,203.156860 263.940582,203.138626 222.994324,203.243439 
	C221.224808,203.247955 219.458344,204.437500 217.344482,205.371460 
M218.142120,264.600281 
	C220.203873,265.023224 222.264938,265.811371 224.327454,265.815125 
	C264.318756,265.887970 304.310242,265.873932 344.301666,265.852051 
	C345.950012,265.851135 347.686890,265.865753 349.210541,265.357574 
	C350.018494,265.088135 350.823486,263.752777 350.936859,262.814850 
	C351.017639,262.146057 350.093323,261.019958 349.348633,260.669769 
	C348.352448,260.201263 347.096191,260.152954 345.951508,260.152313 
	C304.960297,260.129211 263.969025,260.108459 222.978073,260.214966 
	C221.207321,260.219574 219.439713,261.430756 217.333115,262.377258 
	C217.447769,262.891418 217.562424,263.405579 218.142120,264.600281 
M200.550369,249.482529 
	C200.550095,236.169052 200.505341,222.855331 200.578247,209.542252 
	C200.598618,205.824020 199.389236,203.215927 195.336609,203.187897 
	C182.356628,203.098129 169.375473,203.116562 156.395187,203.178970 
	C153.054840,203.195023 151.013916,205.059738 151.000061,208.432724 
	C150.928970,225.739914 150.945190,243.047607 150.983932,260.355011 
	C150.991562,263.765015 152.897415,265.639740 156.279953,265.652740 
	C169.260330,265.702728 182.241074,265.677795 195.221603,265.646515 
	C198.951660,265.637512 200.623138,263.624298 200.559830,259.959198 
	C200.505234,256.798187 200.549393,253.635483 200.550369,249.482529 
z"/>
<path fill="#C74B8A" opacity="1.000000" stroke="none" 
	d="
M368.438965,280.682251 
	C368.048523,240.782837 368.048523,200.716721 368.048523,159.971375 
	C289.886688,159.971375 212.362350,159.971375 134.362854,159.925751 
	C135.116592,159.608826 136.345337,159.100693 137.574341,159.100082 
	C213.493027,159.062653 289.411713,159.066086 365.330414,159.074081 
	C366.308807,159.074188 367.287201,159.181030 368.557007,159.255020 
	C368.722107,160.465118 369.001892,161.561661 369.002533,162.658371 
	C369.024567,201.283661 369.021393,239.908966 369.012054,278.534271 
	C369.011902,279.194702 368.892914,279.855103 368.438965,280.682251 
z"/>
<path fill="#C74B8A" opacity="1.000000" stroke="none" 
	d="
M133.553833,160.167114 
	C133.924973,199.887054 133.970428,239.886948 134.013275,280.341614 
	C133.694565,280.133942 133.101761,279.471375 133.101944,278.808990 
	C133.112991,239.355026 133.172897,199.901047 133.553833,160.167114 
z"/>
<path fill="#FAFAFA" opacity="1.000000" stroke="none" 
	d="
M238.005112,356.959839 
	C232.544403,356.959839 227.582260,356.959839 222.197632,356.959839 
	C223.142975,350.221130 224.029099,343.904663 224.973053,337.175873 
	C239.636932,337.175873 254.048370,337.175842 268.459808,337.175842 
	C276.852997,337.175842 276.907776,337.165863 278.376587,345.215179 
	C279.055511,348.935822 279.473053,352.704163 280.081940,356.959839 
	C266.012848,356.959839 252.258270,356.959839 238.005112,356.959839 
z"/>
<path fill="#110E10" opacity="1.000000" stroke="none" 
	d="
M200.550140,249.978027 
	C200.549393,253.635483 200.505234,256.798187 200.559830,259.959198 
	C200.623138,263.624298 198.951660,265.637512 195.221603,265.646515 
	C182.241074,265.677795 169.260330,265.702728 156.279953,265.652740 
	C152.897415,265.639740 150.991562,263.765015 150.983932,260.355011 
	C150.945190,243.047607 150.928970,225.739914 151.000061,208.432724 
	C151.013916,205.059738 153.054840,203.195023 156.395187,203.178970 
	C169.375473,203.116562 182.356628,203.098129 195.336609,203.187897 
	C199.389236,203.215927 200.598618,205.824020 200.578247,209.542252 
	C200.505341,222.855331 200.550095,236.169052 200.550140,249.978027 
M171.503036,260.344208 
	C179.405762,260.344208 187.308472,260.344208 194.890274,260.344208 
	C194.890274,242.508926 194.890274,225.472641 194.890274,208.640640 
	C181.748840,208.640640 169.048279,208.640640 156.402496,208.640640 
	C156.402496,226.002319 156.402496,242.924118 156.402496,260.344238 
	C161.266037,260.344238 165.885223,260.344238 171.503036,260.344208 
z"/>
<path fill="#000000" opacity="1.000000" stroke="none" 
	d="
M348.767487,175.563995 
	C349.491730,176.697617 350.215973,177.831238 350.940216,178.964874 
	C349.734619,179.639435 348.567352,180.402771 347.305908,180.948120 
	C346.742828,181.191544 345.990356,181.000473 345.323822,181.000336 
	C281.499664,180.987122 217.675491,180.973312 153.280914,180.833969 
	C152.537354,180.546875 152.332489,180.470078 152.095871,180.478043 
	C152.095871,180.478043 151.905319,180.098068 151.690674,179.842255 
	C151.375977,179.374512 151.217331,179.224304 151.000122,179.135788 
	C151.499359,178.084183 151.998596,177.032593 153.274414,175.845291 
	C170.360992,175.697601 186.671005,175.685822 202.981033,175.673584 
	C251.576523,175.637161 300.171997,175.600540 348.767487,175.563995 
z"/>
<path fill="#151013" opacity="1.000000" stroke="none" 
	d="
M217.670639,262.079895 
	C219.439713,261.430756 221.207321,260.219574 222.978073,260.214966 
	C263.969025,260.108459 304.960297,260.129211 345.951508,260.152313 
	C347.096191,260.152954 348.352448,260.201263 349.348633,260.669769 
	C350.093323,261.019958 351.017639,262.146057 350.936859,262.814850 
	C350.823486,263.752777 350.018494,265.088135 349.210541,265.357574 
	C347.686890,265.865753 345.950012,265.851135 344.301666,265.852051 
	C304.310242,265.873932 264.318756,265.887970 224.327454,265.815125 
	C222.264938,265.811371 220.203873,265.023224 217.948578,263.954315 
	C217.726913,262.898865 217.698776,262.489380 217.670639,262.079895 
z"/>
<path fill="#0D0A0B" opacity="1.000000" stroke="none" 
	d="
M217.690460,205.075043 
	C219.458344,204.437500 221.224808,203.247955 222.994324,203.243439 
	C263.940582,203.138626 304.887207,203.156860 345.833710,203.188629 
	C347.126495,203.189636 348.533295,203.334824 349.668518,203.873276 
	C350.345581,204.194412 350.998230,205.453491 350.924133,206.219604 
	C350.851746,206.968353 349.951691,208.043854 349.220856,208.235413 
	C347.807892,208.605774 346.258392,208.512192 344.765503,208.512573 
	C304.484772,208.522964 264.203979,208.533646 223.923309,208.481323 
	C222.001709,208.478836 220.080856,207.900375 217.970642,206.950256 
	C217.751251,205.898605 217.720840,205.486816 217.690460,205.075043 
z"/>
<path fill="#0D0A0B" opacity="1.000000" stroke="none" 
	d="
M217.618454,243.123337 
	C219.185379,242.469681 220.750885,241.249084 222.319458,241.245132 
	C263.604034,241.140793 304.889069,241.131165 346.173401,241.277740 
	C347.798553,241.283508 349.417694,242.985489 351.039642,243.897110 
	C349.495270,244.770615 347.953400,246.401901 346.406128,246.407089 
	C304.955261,246.546280 263.503876,246.526688 222.052597,246.479477 
	C220.782501,246.478027 219.513062,245.895370 218.025909,244.960617 
	C217.745163,243.932816 217.681808,243.528076 217.618454,243.123337 
z"/>
<path fill="#000000" opacity="1.000000" stroke="none" 
	d="
M220.087341,227.280670 
	C219.507950,226.990906 218.928558,226.701172 218.121796,225.877426 
	C217.817993,224.931686 217.741547,224.519928 217.665100,224.108185 
	C219.185287,223.405411 220.703812,222.092834 222.225876,222.088745 
	C263.619263,221.977371 305.013000,221.987564 346.406677,222.015945 
	C351.296326,222.019287 351.815155,222.921143 348.806274,227.038391 
	C334.670990,227.127243 321.346039,227.094986 308.021118,227.113998 
	C278.709869,227.155823 249.398605,227.223526 220.087341,227.280670 
z"/>
<path fill="#F21B8A" opacity="1.000000" stroke="none" 
	d="
M348.441925,175.357010 
	C300.171997,175.600540 251.576523,175.637161 202.981033,175.673584 
	C186.671005,175.685822 170.360992,175.697601 153.598816,175.676788 
	C154.590424,175.424988 156.034088,175.015167 157.477936,175.014435 
	C220.197159,174.982483 282.916412,174.986145 345.635651,174.993454 
	C346.462555,174.993546 347.289459,175.095581 348.441925,175.357010 
z"/>
<path fill="#F21B8A" opacity="1.000000" stroke="none" 
	d="
M220.413315,227.519592 
	C249.398605,227.223526 278.709869,227.155823 308.021118,227.113998 
	C321.346039,227.094986 334.670990,227.127243 348.450592,227.205597 
	C347.636230,227.518875 346.367401,227.974854 345.098175,227.976013 
	C304.301636,228.013046 263.505066,228.007278 222.708496,227.995544 
	C222.052078,227.995346 221.395691,227.840942 220.413315,227.519592 
z"/>
<path fill="#F21B8A" opacity="1.000000" stroke="none" 
	d="
M217.501877,262.228577 
	C217.698776,262.489380 217.726913,262.898865 217.716064,263.614044 
	C217.562424,263.405579 217.447769,262.891418 217.501877,262.228577 
z"/>
<path fill="#F21B8A" opacity="1.000000" stroke="none" 
	d="
M217.454849,243.277161 
	C217.681808,243.528076 217.745163,243.932816 217.786041,244.645172 
	C217.606110,244.445496 217.448669,243.938232 217.454849,243.277161 
z"/>
<path fill="#F21B8A" opacity="1.000000" stroke="none" 
	d="
M217.517456,205.223251 
	C217.720840,205.486816 217.751251,205.898605 217.739731,206.617661 
	C217.580048,206.407120 217.462265,205.889297 217.517456,205.223251 
z"/>
<path fill="#F21B8A" opacity="1.000000" stroke="none" 
	d="
M217.491013,224.266418 
	C217.741547,224.519928 217.817993,224.931686 217.879761,225.659149 
	C217.682358,225.458130 217.499634,224.941391 217.491013,224.266418 
z"/>
<path fill="#F21B8A" opacity="1.000000" stroke="none" 
	d="
M151.054871,179.286743 
	C151.217331,179.224304 151.375977,179.374512 151.500427,179.747528 
	C151.342010,179.790817 151.203613,179.633835 151.054871,179.286743 
z"/>
<path fill="#F21B8A" opacity="1.000000" stroke="none" 
	d="
M152.203720,180.598907 
	C152.332489,180.470078 152.537354,180.546875 152.806213,180.847168 
	C152.682770,180.946747 152.485977,180.858017 152.203720,180.598907 
z"/>
<path fill="#FDFDFD" opacity="1.000000" stroke="none" 
	d="
M171.003723,260.344238 
	C165.885223,260.344238 161.266037,260.344238 156.402496,260.344238 
	C156.402496,242.924118 156.402496,226.002319 156.402496,208.640640 
	C169.048279,208.640640 181.748840,208.640640 194.890274,208.640640 
	C194.890274,225.472641 194.890274,242.508926 194.890274,260.344208 
	C187.308472,260.344208 179.405762,260.344208 171.003723,260.344238 
z"/>
</svg>